/* XPM */
static char *_5[] = {
/* columns rows colors chars-per-pixel */
"64 64 256 2 ",
"   c black",
".  c #0000A8",
"X  c #00A800",
"o  c #00A8A8",
"O  c #A80000",
"+  c #A800A8",
"@  c #A85400",
"#  c gray66",
"$  c gray33",
"%  c #5454FC",
"&  c #54FC54",
"*  c #54FCFC",
"=  c #FC5454",
"-  c #FC54FC",
";  c #FCFC54",
":  c gray99",
">  c #ECECEC",
",  c gainsboro",
"<  c #D0D0D0",
"1  c #C0C0C0",
"2  c #B4B4B4",
"3  c gray66",
"4  c #989898",
"5  c gray55",
"6  c #7C7C7C",
"7  c gray44",
"8  c #646464",
"9  c gray33",
"0  c #484848",
"q  c gray22",
"w  c #2C2C2C",
"e  c #202020",
"r  c #FC0000",
"t  c #EC0000",
"y  c #E00000",
"u  c #D40000",
"i  c #C80000",
"p  c #BC0000",
"a  c #B00000",
"s  c #A40000",
"d  c #980000",
"f  c #880000",
"g  c #7C0000",
"h  c #700000",
"j  c #640000",
"k  c #580000",
"l  c #4C0000",
"z  c #400000",
"x  c #FCD8D8",
"c  c #FCB8B8",
"v  c #FC9C9C",
"b  c #FC7C7C",
"n  c #FC5C5C",
"m  c #FC4040",
"M  c #FC2020",
"N  c #FC0000",
"B  c #FCA85C",
"V  c #FC9840",
"C  c #FC8820",
"Z  c #FC7800",
"A  c #E46C00",
"S  c #CC6000",
"D  c #B45400",
"F  c #9C4C00",
"G  c #FCFCD8",
"H  c #FCFCB8",
"J  c #FCFC9C",
"K  c #FCFC7C",
"L  c #FCF85C",
"P  c #FCF440",
"I  c #FCF420",
"U  c #FCF400",
"Y  c #E4D800",
"T  c #CCC400",
"R  c #B4AC00",
"E  c #9C9C00",
"W  c #848400",
"Q  c #706C00",
"!  c #585400",
"~  c #404000",
"^  c #D0FC5C",
"/  c #C4FC40",
"(  c #B4FC20",
")  c #A0FC00",
"_  c #90E400",
"`  c #80CC00",
"'  c #74B400",
"]  c #609C00",
"[  c #D8FCD8",
"{  c #BCFCB8",
"}  c #9CFC9C",
"|  c #80FC7C",
" . c #60FC5C",
".. c #40FC40",
"X. c #20FC20",
"o. c #00FC00",
"O. c #00FC00",
"+. c #00EC00",
"@. c #00E000",
"#. c #00D400",
"$. c #04C800",
"%. c #04BC00",
"&. c #04B000",
"*. c #04A400",
"=. c #049800",
"-. c #048800",
";. c #047C00",
":. c #047000",
">. c #046400",
",. c #045800",
"<. c #044C00",
"1. c #044000",
"2. c #D8FCFC",
"3. c #B8FCFC",
"4. c #9CFCFC",
"5. c #7CFCF8",
"6. c #5CFCFC",
"7. c #40FCFC",
"8. c #20FCFC",
"9. c #00FCFC",
"0. c #00E4E4",
"q. c #00CCCC",
"w. c #00B4B4",
"e. c #009C9C",
"r. c #008484",
"t. c #007070",
"y. c #005858",
"u. c #004040",
"i. c #5CBCFC",
"p. c #40B0FC",
"a. c #20A8FC",
"s. c #009CFC",
"d. c #008CE4",
"f. c #007CCC",
"g. c #006CB4",
"h. c #005C9C",
"j. c #D8D8FC",
"k. c #B8BCFC",
"l. c #9C9CFC",
"z. c #7C80FC",
"x. c #5C60FC",
"c. c #4040FC",
"v. c #2024FC",
"b. c #0004FC",
"n. c #0000FC",
"m. c #0000EC",
"M. c #0000E0",
"N. c #0000D4",
"B. c #0000C8",
"V. c #0000BC",
"C. c #0000B0",
"Z. c #0000A4",
"A. c #000098",
"S. c #000088",
"D. c #00007C",
"F. c #000070",
"G. c #000064",
"H. c #000058",
"J. c #00004C",
"K. c #000040",
"L. c #282828",
"P. c #FCE034",
"I. c #FCD424",
"U. c #FCCC18",
"Y. c #FCC008",
"T. c #FCB400",
"R. c #B420FC",
"E. c #A800FC",
"W. c #9800E4",
"Q. c #8000CC",
"!. c #7400B4",
"~. c #60009C",
"^. c #500084",
"/. c #440070",
"(. c #340058",
"). c #280040",
"_. c #FCD8FC",
"`. c #FCB8FC",
"'. c #FC9CFC",
"]. c #FC7CFC",
"[. c #FC5CFC",
"{. c #FC40FC",
"}. c #FC20FC",
"|. c #FC00FC",
" X c #E000E4",
".X c #C800CC",
"XX c #B400B4",
"oX c #9C009C",
"OX c #840084",
"+X c #6C0070",
"@X c #580058",
"#X c #400040",
"$X c #FCE8DC",
"%X c #FCE0D0",
"&X c #FCD8C4",
"*X c #FCD4BC",
"=X c #FCCCB0",
"-X c #FCC4A4",
";X c #FCBC9C",
":X c #FCB890",
">X c #FCB080",
",X c #FCA470",
"<X c #FC9C60",
"1X c #F0945C",
"2X c #E88C58",
"3X c #DC8854",
"4X c #D08050",
"5X c #C87C4C",
"6X c #BC7848",
"7X c #B47044",
"8X c #A86840",
"9X c #A0643C",
"0X c #9C6038",
"qX c #905C34",
"wX c #885830",
"eX c #80502C",
"rX c #744C28",
"tX c #6C4824",
"yX c #5C4020",
"uX c #543C1C",
"iX c #483818",
"pX c #403018",
"aX c #382C14",
"sX c #28200C",
"dX c #600064",
"fX c #006464",
"gX c #006060",
"hX c #00001C",
"jX c #00002C",
"kX c #302410",
"lX c #480048",
"zX c #500050",
"xX c #000034",
"cX c gray11",
"vX c #4C4C4C",
"bX c gray36",
"nX c gray25",
"mX c gray19",
"MX c #343434",
"NX c #D8F4F4",
"BX c #B8E8E8",
"VX c #9CDCDC",
"CX c #74C8C8",
"ZX c #48C0C0",
"AX c #20B4B4",
"SX c #20B0B0",
"DX c #00A4A4",
"FX c #009898",
"GX c #008C8C",
"HX c #008484",
"JX c #007C7C",
"KX c #007878",
"LX c #007474",
"PX c #007070",
"IX c #006C6C",
"UX c #980088",
/* pixels */
"w w w w w w w w w w w w w w w w w w w w w w w w w w w w w w w w w w w w w w w w w w w w w w w w w w w w w w w w w w w w w w w w ",
"q e cXw q 0 7 6 7 6 $ nX0 $ $ $ $ 0 $ $ bXbX$ $ $ nXnXnX$ bX6 5 5 4 6 bX0 q mXq 0 nXq q q w e e w w mXq mXq $ 6 6 5 5 5 7 bXnXq ",
"w cXcXcXe q $ 6 6 6 6 6 6 6 5 6 6 7 6 6 5 6 6 7 bXbXbX$ bX7 7 7 6 7 $ mXcXcXcXe e e e e e w e e w w w w w e q $ 6 5 5 7 bX$ q w ",
"w e w e e q $ 4 4 4 4 5 4 5 5 5 4 5 5 4 4 4 5 5 6 6 7 7 6 6 5 6 6 7 bX0 nXq 0 $ $ $ 0 0 0 $ $ $ $ 0 nXq q mXnXbX6 4 4 5 7 bX$ w ",
"w e w w w 7 7 5 5 4 5 6 6 6 6 6 6 6 6 6 5 6 6 6 7 7 7 7 6 5 5 6 6 5 5 5 7 7 6 6 6 6 5 6 7 6 6 6 6 7 bXbXbXbX7 6 5 4 4 4 5 7 $ nX",
"e cXw w $ bX7 5 5 5 6 bX0 0 nXnX0 $ $ $ 0 q q 0 0 nX$ 6 4 5 4 5 4 5 5 5 5 5 5 4 4 5 6 6 7 7 6 6 6 5 6 7 6 5 5 5 5 5 5 4 4 5 6 $ ",
"$ nXcX0 7 7 5 5 7 6 bX0 mXe w q q q mXe cX  cXcXcXcXq 6 4 4 5 6 7 bXbX$ $ $ $ bXbXbX$ 0 0 $ bXbX7 7 7 7 bX7 7 6 5 5 5 4 4 5 6 7 ",
"7 6 0 $ 5 5 5 5 7 6 bX0 mXmXnXnXnXmXw e cXcXcXcX  cXw bX5 4 6 $ mXw mXw w e w mXq q mXmXw q nXnX$ $ $ nXnX0 $ bXbXbX7 6 5 5 6 6 ",
"4 5 7 7 5 7 7 bX6 5 7 0 mXw mXw mXmXw w e e e cXcXcXe $ 6 6 bXmXcXcXw e cXe e w e cXcXcXcXe w e e e cXcXe mXmXq mXe q bX6 5 5 7 ",
"4 5 5 5 bXq q bX6 5 7 0 e cXcXcXe e w mXmXw e cXcXcXq bX6 7 0 cXcXcXcXcXe e mXw e cXcXcXcXcXcXcXcXcXcXcXw e e cXcXcXq bX5 4 4 6 ",
"# 5 7 bXq cX0 6 5 5 6 0 cX  cXcXcXcXcXe mXmXcX  cXcXq bX6 7 q cXcXcXcXcXcXcXcXcXcXcXcXcXcXcXcXcXcXe mXmXmXe cXcXcXcXq bX5 4 4 5 ",
"6 bX0 w w 0 7 5 5 4 5 bXmXcXcXcXcXcXcXcXcXe cXcXw q 0 7 5 6 $ w cXcXe e cX  cXcXcXcXcXcXcXcXcXcXw q 0 0 nXw e cXcXcXw bX5 5 4 4 ",
"w w e mX0 0 7 5 4 5 5 5 7 $ q e cXe w e e mXq $ bX7 7 5 4 5 $ mXe w e cXcX    cXcX  cXcXcXcXe w nX$ bXbX$ 0 q w cXcXcX0 6 5 5 bX",
"cXcXe mXmX7 4 4 5 5 5 5 5 6 bX0 nX0 bX$ $ bXbX7 6 6 5 5 4 5 0 e cXcXcXcX      cX    cXcXcXw mXq 0 bXbXbXbXbX$ q cXcXcXq 7 5 7 0 ",
"mXw e w 7 5 5 5 6 7 7 7 7 7 $ 0 $ bX7 6 6 6 7 7 bX7 5 4 5 7 0 cX                    cXe e w q nX0 $ bXbXbXbX0 q e cXcXmX7 4 bXw ",
"$ q w mX7 5 6 7 $ q q nXnXnXmXe q 0 $ bX7 bX0 0 nXbX6 5 6 7 $ cX  cX                  cXcXcXcXe mXnXnX0 0 nXmXw w e e mX7 5 bX0 ",
"bXq e $ 5 6 bX$ q e e w e e cXcXe cXe q 0 0 nXq 0 7 5 5 6 6 bXw cXcXcX                      cXcXe w w w e cXcXe cXw q 0 7 6 7 0 ",
"nXq e 7 6 7 $ 0 q e w mXw cXcXe w e e mXnXq q q 0 bX6 5 6 7 $ mXcXe cXcXcX        cXcX    cXcXcXcXe cXcXcXcXcXe q 0 0 bX7 6 7 bX",
"bX$ 0 7 7 bX0 mXw w mXmXe e e q q mXw q nXq q q q 0 7 6 6 7 $ mXe w e cXcXcXcXcXcXe e e cXe e e e e e w q q mXq $ bXbXbX7 6 6 6 ",
"5 6 6 5 7 $ 0 w cXe w q q mXmXmXmXmXmXnXnXmXmXq nXnX$ 7 6 7 bX$ 0 0 0 nXq q 0 0 $ 0 $ $ nXnX0 nXnX0 $ bXbX7 bXbXbX7 7 7 6 6 5 5 ",
"6 6 7 bXbX0 0 mXw mXq w mXq nXmXmXmXq nXq mXw w mX0 bX6 6 6 6 6 7 6 6 7 6 7 6 6 5 5 6 6 6 6 bXbX7 6 7 7 7 7 6 5 6 6 6 7 bXbX7 7 ",
"bXbXq w nXmXmXw mXq q w w q mXw w w w mXmXw e mXq 0 bX5 5 5 5 7 7 6 6 7 7 6 7 6 6 5 6 6 7 7 bX$ bX7 $ $ 0 bX6 5 5 5 5 bX0 nXnX$ ",
"mXw e cXcXmXw mXq q mXw w mXmXw e w cXe e w w w mX0 bX6 5 6 7 $ 0 $ $ q nX0 nXq q 0 0 nXq q mXmXnXq w mXnXbX6 5 4 # 5 $ mXe cXe ",
"e e cXcXcXw mXmXmXw w mXnXq q mXw e e cXw w e e e q $ 7 6 5 7 0 w cXcXcXw q nXw cXcXcXcXe w e cXcXe cXe mX0 6 4 # # 5 $ q mXe e ",
"0 nXq cXcXcXcXcXcXe w mXq q q mXmXmXw e e w e e cXmX0 7 5 5 7 nXw e q 0 0 0 q w w cXcXcXcXe mXw w w w q 0 $ 7 5 4 4 5 7 bXbXbX$ ",
"7 7 7 $ e cXcXcXcXcXcXcXe cXe cXe e w w w q q q q 0 $ bX6 5 7 0 0 7 6 7 bX$ q w mXq nX0 0 0 $ $ bXbXbXbX7 6 6 5 4 4 5 5 6 6 5 7 ",
"5 5 5 5 7 $ cXe cXcXcXcXmXw w mXmXq 0 0 0 $ 7 7 7 bX7 7 6 5 6 7 7 5 5 5 6 7 bXbXbXbXbX6 6 6 6 6 5 5 5 5 5 4 4 5 5 5 6 6 6 5 4 4 ",
"4 4 5 5 5 7 $ $ $ 0 q nXbX7 7 7 7 7 6 7 7 6 6 6 6 6 5 5 5 6 5 5 6 6 5 6 7 7 bX$ bXbX7 7 6 5 5 5 4 4 5 6 5 5 5 5 5 7 7 6 4 5 5 6 ",
"0 0 bX6 6 6 5 5 5 6 6 6 5 5 6 6 7 7 7 7 7 7 bX7 6 5 6 6 5 6 5 6 7 $ $ q mXq w cXw q $ 7 6 5 4 5 5 5 5 5 5 6 6 7 $ 0 0 bXbX7 $ 0 ",
"q nXmX0 6 4 5 5 5 5 6 7 7 bX0 0 q q q w w w q q 0 $ 0 0 bX7 7 bXq cXcX    cXcXcXe w nX7 5 4 5 6 $ 0 $ 7 7 bX0 e cXe mXmXmXq mXq ",
"mXw w q 7 5 4 4 5 6 bX0 q q mXmXe cXcXcXcXcXcXcXe w w q 0 nXmXmXe cXcX    cXcXw nXq nX7 5 4 5 7 nXe cXw mXe cXcXcXcXw w mXq q mX",
"w q mXq 0 7 5 5 6 7 q cXcXe e w e e e cXcXcXcXcXcXcXcXmXnXe cXcXcXcXcXcXe e w mX$ bX$ 7 5 4 5 bXq e cXcXcXcXcXe w q q nX0 nXw e ",
"q nXmXnXe q 6 6 7 $ q cXcXcXcXe w e cXcXcXcXcXcXe cXcXcXe cXcX  cXe mXmXmXq nX$ bX7 6 5 4 4 5 7 q e e e cXcXe w mXnX0 0 $ 0 w cX",
"cXcXcXw cXq 6 5 7 $ mXcX    cXcXe e cXcXcXcXcXcXcXcX  cXcXcXcX    cXe w q nXq nXq 0 6 4 4 5 5 7 0 q q mXcXcXcXcXcXe e mXq q e   ",
"cXe e cXq $ 6 4 6 0 mXcX  cXcXcXcXcXcXcXcXcXcXcXcXcXcXcXcXcXcX    cXcXcXe e cXcXcXnX7 5 5 5 5 6 bXbX$ nXw e cXcXe q mXw e w cX  ",
"$ 7 7 7 7 7 5 5 6 $ q e cX          cXcXcXe e mXe w q q mXnX0 nXw w e cXe mXe cXmX7 5 5 5 5 6 6 6 5 6 6 7 7 7 7 bXbXbX$ 0 $ 0 0 ",
"5 5 4 5 5 5 4 6 7 $ nXmXe e cXcXcXcXe w nX0 bXbX$ 7 7 bX7 6 7 6 6 7 7 bXbX7 bX$ bX6 5 6 6 5 6 5 6 6 5 5 5 5 5 5 5 5 5 5 5 6 6 6 ",
"5 5 4 4 4 4 4 6 7 7 bX$ bXbX$ $ $ $ $ $ $ bX6 5 6 6 6 6 6 5 4 5 5 4 4 4 6 6 6 6 6 4 4 6 5 5 6 6 7 7 6 5 4 4 5 5 4 4 5 4 4 5 5 5 ",
"7 7 6 4 4 4 5 5 6 7 7 7 6 6 7 7 6 6 7 0 q nX$ $ $ $ $ $ nX$ 7 6 7 7 bX7 bX7 7 6 5 4 5 6 5 5 6 6 7 7 6 6 6 7 7 bX7 6 6 5 5 6 7 7 ",
"$ mX7 4 4 4 4 5 7 bXbXbXbX$ 0 $ bX7 bX0 nXe e mXmXmXmXw cXcXw q nXnXq q q nX$ bX7 5 5 5 5 5 5 5 5 6 6 7 bXbX$ $ 0 $ bX7 7 7 $ $ ",
"$ $ $ 7 5 4 # 5 bXq mXq 0 0 q w q $ bXbX0 q e w w e w w cXcXcXe w mXw w w w q nX$ 7 6 5 5 5 5 5 6 6 7 7 bXbX7 bX$ $ $ $ $ $ $ $ ",
"nXmXmX$ 6 4 4 4 7 q cXe w q mXe e nXbX7 bXq w e e e w w e w e q q q w w e cXcXcXw 0 7 5 4 5 6 7 7 6 6 7 7 6 5 6 bX$ $ $ $ $ $ mX",
"cXmXnX$ 6 4 5 6 $ w cXcXcXcXcXcXe q bX6 7 0 mXe e mXq w w w q mXq q mXe e w w w w nX7 5 5 5 5 7 bXbX7 7 7 7 6 7 $ $ $ mXnXmXmXcX",
"nXnXmX7 5 5 5 6 $ q e cXcXcXcXcXe nX7 6 7 0 nXq q nXq w w mXq q w w w w q nXq mXmXq bX6 5 4 5 7 bX$ bXbX$ bXbX$ mX$ $ nXnXmXnXq ",
"mX0 bX5 4 6 6 7 $ q e cXcXcXcXcXe 0 6 5 6 bX0 q q nXmXe e w q mXw w e w w w e mXnX$ bX6 4 4 5 6 bX$ $ $ $ $ $ bXmXmX$ $ $ $ $ $ ",
"7 5 5 4 4 6 7 7 $ q e cXcXcXe e e $ 5 6 6 bXnXe e e e w e w mXq w e cXcXcXcXcXw 0 bXbX6 5 5 5 5 6 6 7 7 bXbX7 7 $ $ bXbX7 6 5 6 ",
"4 4 # 5 5 6 6 5 6 7 0 e cXw nXq mXbX6 6 6 bXnXw e e w w mXq mXmXe e e e cXe w nX7 6 7 7 6 5 5 5 5 5 6 6 6 6 5 6 6 7 6 5 4 4 4 4 ",
"6 6 6 5 5 6 5 4 4 5 6 6 7 7 7 bX$ 7 6 5 5 6 bX0 0 0 nX0 0 0 $ 0 $ $ bX$ $ bX7 6 6 5 5 6 7 6 6 6 6 5 6 5 5 5 5 6 5 4 5 5 6 6 6 7 ",
"q q nXbX5 6 5 4 5 6 7 7 7 bXbX$ $ bX7 6 5 5 6 7 7 7 7 7 7 6 6 5 5 5 4 5 5 5 4 5 6 6 4 5 6 7 bXbX7 5 5 4 4 5 6 $ $ bX$ nX0 0 0 0 ",
"w e cXmX$ 7 7 7 7 $ q q q mXe w q $ 7 6 5 7 bXbX7 6 6 6 6 5 5 5 5 5 5 5 5 5 6 7 $ 0 7 7 bXbXnX0 7 4 5 5 4 5 bXmXe w cXcXe q e e ",
"cXcXw mXmXq 0 0 $ q e e w cXcXcXnX7 5 5 6 $ nX$ bXbXbX7 7 6 6 6 5 5 7 bX$ 0 0 0 mXmXq 0 0 $ 0 $ 6 4 5 6 5 5 bXq q q e cXcXe w cX",
"cXw q w e e w q 0 nXq 0 0 nXq 0 bX7 6 6 7 0 q 0 $ $ bX6 5 6 6 6 5 5 bXq e w q q w e e w q 0 0 7 5 5 5 5 4 4 6 nXq q w e e cXcXcX",
"w w q w w w e w w mXbX6 6 6 7 7 6 6 6 6 6 7 7 7 6 7 5 4 4 4 5 6 6 6 bXe cXw q q w w w e w w e 0 6 5 5 4 4 5 7 q mXq mXw mXw w e ",
"mXmX0 0 mXmXw e cXw 0 bXbXbX$ bXbX7 7 7 6 6 5 5 5 5 4 4 5 5 4 5 6 5 bXe cXw mXe e mXmXw e cXcXnX7 5 4 5 5 6 $ q mXq nXq q q mXmX",
"mXmX0 0 mXw mXw e e w w w q q 0 $ $ $ 0 0 $ 7 5 6 bXbX7 6 5 5 5 5 7 0 cXcXw e e e mXq mXw e cXmXbX5 4 5 6 7 $ w e w 0 0 q mXmXmX",
"w mX0 e w q q w cXcXcXw mXq q q 0 0 q mXw q q q q w q 0 bX5 5 5 4 7 w cXe w mXe cXw q q w cXcXcX0 6 5 4 5 7 $ w cXcXe q w e w e ",
"w mXe e e q mXe cXcXe w q q q q q nXmXw w mXw w mXmXnX0 bX5 5 5 5 7 w cXw q q w e w q mXw cXcXcXq bX6 5 5 6 bXmXcXe e e e e w mX",
"w w w w mXmXmXw cXcXcXcXw q q q nXq q w q q q q q q q $ bX6 5 7 6 bXw cXe mXq mXw mXq w w cXcXcXmXbX6 6 6 7 $ q cXe w w e cXe mX",
"w e e w w w e cXcXcXcXe w q q q q nXq q q nXnXnXnXq q nX0 7 6 7 bX0 e cXe w q w w w w e cXcXcXcXmX$ 6 5 6 $ q e e e cXcXcXe e e ",
"e cXcXw w e e cXcXcXe w w mXq q q q 0 0 0 0 0 nXnXnXnXq 0 7 6 7 0 mXcXcXcXcXe e w e e e cXcXcXcXq bX6 5 6 bXq e w e cXcXcXcXcXcX",
"cXcXcXq w w w w w e e w q q q q q q nXnXnX0 nXq q q q nX$ 6 5 5 7 0 q w e e cXe mXmXw w w w q q $ 7 5 5 5 6 7 $ 0 mXcXcXcXcXcXcX",
"q q q q mXmXq w w w w w e w q q q q q nXq nXnXq q q q q 0 6 4 5 5 6 6 7 7 bX0 0 bX$ 0 0 $ 7 7 6 6 5 5 5 4 4 4 6 bX$ 0 mXw e e mX",
"7 bXbX0 0 0 q e e w w e w w q q q q nX0 q q q q q q 0 nX$ 6 4 5 5 4 4 5 5 5 6 7 6 7 6 6 5 5 5 5 5 4 4 4 4 4 4 5 6 7 bX$ 0 $ $ $ ",
"q q q q q q q q q q q q q q q q q q q q q q q q q q q q q q q q q q q q q q q q q q q q q q q q q q q q q q q q q q q q q q q q "
};
