/* XPM */
static char *_2[] = {
/* columns rows colors chars-per-pixel */
"64 64 256 2 ",
"   c black",
".  c #0000A8",
"X  c #00A800",
"o  c #00A8A8",
"O  c #A80000",
"+  c #A800A8",
"@  c #A85400",
"#  c gray66",
"$  c gray33",
"%  c #5454FC",
"&  c #54FC54",
"*  c #54FCFC",
"=  c #FC5454",
"-  c #FC54FC",
";  c #FCFC54",
":  c gray99",
">  c #ECECEC",
",  c gainsboro",
"<  c #D0D0D0",
"1  c #C0C0C0",
"2  c #B4B4B4",
"3  c gray66",
"4  c #989898",
"5  c gray55",
"6  c #7C7C7C",
"7  c gray44",
"8  c #646464",
"9  c gray33",
"0  c #484848",
"q  c gray22",
"w  c #2C2C2C",
"e  c #202020",
"r  c #FC0000",
"t  c #EC0000",
"y  c #E00000",
"u  c #D40000",
"i  c #C80000",
"p  c #BC0000",
"a  c #B00000",
"s  c #A40000",
"d  c #980000",
"f  c #880000",
"g  c #7C0000",
"h  c #700000",
"j  c #640000",
"k  c #580000",
"l  c #4C0000",
"z  c #400000",
"x  c #FCD8D8",
"c  c #FCB8B8",
"v  c #FC9C9C",
"b  c #FC7C7C",
"n  c #FC5C5C",
"m  c #FC4040",
"M  c #FC2020",
"N  c #FC0000",
"B  c #FCA85C",
"V  c #FC9840",
"C  c #FC8820",
"Z  c #FC7800",
"A  c #E46C00",
"S  c #CC6000",
"D  c #B45400",
"F  c #9C4C00",
"G  c #FCFCD8",
"H  c #FCFCB8",
"J  c #FCFC9C",
"K  c #FCFC7C",
"L  c #FCF85C",
"P  c #FCF440",
"I  c #FCF420",
"U  c #FCF400",
"Y  c #E4D800",
"T  c #CCC400",
"R  c #B4AC00",
"E  c #9C9C00",
"W  c #848400",
"Q  c #706C00",
"!  c #585400",
"~  c #404000",
"^  c #D0FC5C",
"/  c #C4FC40",
"(  c #B4FC20",
")  c #A0FC00",
"_  c #90E400",
"`  c #80CC00",
"'  c #74B400",
"]  c #609C00",
"[  c #D8FCD8",
"{  c #BCFCB8",
"}  c #9CFC9C",
"|  c #80FC7C",
" . c #60FC5C",
".. c #40FC40",
"X. c #20FC20",
"o. c #00FC00",
"O. c #00FC00",
"+. c #00EC00",
"@. c #00E000",
"#. c #00D400",
"$. c #04C800",
"%. c #04BC00",
"&. c #04B000",
"*. c #04A400",
"=. c #049800",
"-. c #048800",
";. c #047C00",
":. c #047000",
">. c #046400",
",. c #045800",
"<. c #044C00",
"1. c #044000",
"2. c #D8FCFC",
"3. c #B8FCFC",
"4. c #9CFCFC",
"5. c #7CFCF8",
"6. c #5CFCFC",
"7. c #40FCFC",
"8. c #20FCFC",
"9. c #00FCFC",
"0. c #00E4E4",
"q. c #00CCCC",
"w. c #00B4B4",
"e. c #009C9C",
"r. c #008484",
"t. c #007070",
"y. c #005858",
"u. c #004040",
"i. c #5CBCFC",
"p. c #40B0FC",
"a. c #20A8FC",
"s. c #009CFC",
"d. c #008CE4",
"f. c #007CCC",
"g. c #006CB4",
"h. c #005C9C",
"j. c #D8D8FC",
"k. c #B8BCFC",
"l. c #9C9CFC",
"z. c #7C80FC",
"x. c #5C60FC",
"c. c #4040FC",
"v. c #2024FC",
"b. c #0004FC",
"n. c #0000FC",
"m. c #0000EC",
"M. c #0000E0",
"N. c #0000D4",
"B. c #0000C8",
"V. c #0000BC",
"C. c #0000B0",
"Z. c #0000A4",
"A. c #000098",
"S. c #000088",
"D. c #00007C",
"F. c #000070",
"G. c #000064",
"H. c #000058",
"J. c #00004C",
"K. c #000040",
"L. c #282828",
"P. c #FCE034",
"I. c #FCD424",
"U. c #FCCC18",
"Y. c #FCC008",
"T. c #FCB400",
"R. c #B420FC",
"E. c #A800FC",
"W. c #9800E4",
"Q. c #8000CC",
"!. c #7400B4",
"~. c #60009C",
"^. c #500084",
"/. c #440070",
"(. c #340058",
"). c #280040",
"_. c #FCD8FC",
"`. c #FCB8FC",
"'. c #FC9CFC",
"]. c #FC7CFC",
"[. c #FC5CFC",
"{. c #FC40FC",
"}. c #FC20FC",
"|. c #FC00FC",
" X c #E000E4",
".X c #C800CC",
"XX c #B400B4",
"oX c #9C009C",
"OX c #840084",
"+X c #6C0070",
"@X c #580058",
"#X c #400040",
"$X c #FCE8DC",
"%X c #FCE0D0",
"&X c #FCD8C4",
"*X c #FCD4BC",
"=X c #FCCCB0",
"-X c #FCC4A4",
";X c #FCBC9C",
":X c #FCB890",
">X c #FCB080",
",X c #FCA470",
"<X c #FC9C60",
"1X c #F0945C",
"2X c #E88C58",
"3X c #DC8854",
"4X c #D08050",
"5X c #C87C4C",
"6X c #BC7848",
"7X c #B47044",
"8X c #A86840",
"9X c #A0643C",
"0X c #9C6038",
"qX c #905C34",
"wX c #885830",
"eX c #80502C",
"rX c #744C28",
"tX c #6C4824",
"yX c #5C4020",
"uX c #543C1C",
"iX c #483818",
"pX c #403018",
"aX c #382C14",
"sX c #28200C",
"dX c #600064",
"fX c #006464",
"gX c #006060",
"hX c #00001C",
"jX c #00002C",
"kX c #302410",
"lX c #480048",
"zX c #500050",
"xX c #000034",
"cX c gray11",
"vX c #4C4C4C",
"bX c gray36",
"nX c gray25",
"mX c gray19",
"MX c #343434",
"NX c #D8F4F4",
"BX c #B8E8E8",
"VX c #9CDCDC",
"CX c #74C8C8",
"ZX c #48C0C0",
"AX c #20B4B4",
"SX c #20B0B0",
"DX c #00A4A4",
"FX c #009898",
"GX c #008C8C",
"HX c #008484",
"JX c #007C7C",
"KX c #007878",
"LX c #007474",
"PX c #007070",
"IX c #006C6C",
"UX c #980088",
/* pixels */
"jXjXjXjXjXjXjXjXjXjXjXjXjXjXjXjXjXjXjXjXjXjXjXjXjXjXjXjXjXjXjXjXjXjXjXjXjXjXjXjXjXjXjXjXjXjXjXjXjXjXjXjXjXjXjXjXjXjXjXjXjXjXjXjX",
"C.. . . . . . C.. C.. . V.. V.. C.. C.. C.C.C.V.C.C.C.C.. C.. C.C.C.V.C.C.C.. . . . . . C.. C.. . V.. V.. C.. C.. C.C.C.V.C.C.C.",
". . C.. V.C.. C.C.C.C.. C.V.C.V.. C.. C.C.C.C.C.V.C.C.. C.. C.C.C.C.C.V.C.C.. C.. V.C.. C.C.C.C.. C.V.C.V.. C.. C.C.C.C.C.V.C.C.",
". C.. V.C.V.C.V.C.C.C.V.C.C.V.. C.. C.C.V.C.C.C.C.V.C.C.. C.C.V.C.C.C.C.V.C.C.. V.C.V.C.V.C.C.C.V.C.C.V.. C.. C.C.V.C.C.C.C.V.C.",
"C.. C.C.C.C.V.C.V.C.V.C.C.C.C.C.. C.C.C.V.V.C.C.V.C.C.. C.C.C.V.V.C.C.V.C.C.. C.C.C.C.V.C.V.C.V.C.C.C.C.C.. C.C.C.V.V.C.C.V.C.C.",
"V.V.N.N.V.V.N.N.N.N.M.M.M.M.M.M.M.M.M.M.M.M.N.N.N.V.V.V.V.V.N.N.V.V.V.V.V.V.N.N.N.N.M.M.M.M.M.M.M.M.M.M.M.M.N.N.N.V.V.N.N.V.V.V.",
"G.G.G.F.F.F.F.G.G.G.G.G.G.G.G.F.F.F.G.F.G.G.F.G.G.G.G.G.G.F.F.F.F.F.F.G.G.G.G.G.G.G.F.F.F.F.F.F.F.F.F.F.F.F.F.F.F.F.F.F.F.F.F.G.",
"A.S.S.S.A.A.Z.Z.A.A.S.A.A.S.S.S.A.A.A.Z.A.S.S.S.S.S.S.S.S.S.S.S.S.S.S.A.Z.Z.A.A.S.S.S.F.D.S.S.S.S.S.S.S.A.A.A.A.Z.Z.Z.A.A.A.A.A.",
"S.S.S.A.A.A.Z.Z.A.S.S.S.A.A.S.S.A.A.A.A.A.S.S.S.S.S.S.S.S.S.S.S.S.S.S.S.A.A.A.A.S.S.S.S.S.S.S.S.S.S.S.S.S.A.A.Z.Z.Z.Z.A.S.S.A.S.",
"S.S.A.A.A.A.Z.Z.A.S.S.S.S.A.S.S.G.H.H.H.H.H.H.H.H.H.H.H.H.H.H.H.H.H.H.H.H.H.H.H.H.H.H.H.H.G.S.S.S.S.S.S.A.Z.Z.Z.Z.Z.Z.A.S.D.S.S.",
"S.A.A.Z.A.A.Z.Z.A.A.S.S.S.S.S.S.F.D.D.D.D.D.D.D.D.D.D.D.D.D.S.. D.D.D.D.D.D.D.D.D.D.D.D.D.C.S.S.S.S.A.A.Z.Z.Z.Z.Z.A.A.A.S.D.D.S.",
"A.A.A.A.Z.Z.A.A.A.S.S.S.S.S.S.S.F.D.D.D.D.D.D.D.D.D.D.D.D.S.N.N.A.D.D.D.D.D.D.D.D.D.D.D.D.C.S.A.A.A.A.Z.Z.Z.A.Z.Z.Z.A.A.S.D.D.D.",
"A.S.A.A.Z.Z.A.A.S.S.S.S.S.S.A.A.F.D.D.D.D.D.D.D.D.D.D.D.S.N.B.V.V.S.D.D.D.D.D.D.D.D.D.D.D.C.A.A.Z.Z.A.A.Z.Z.Z.Z.Z.Z.A.A.A.S.S.S.",
"S.S.S.A.A.A.A.S.S.S.S.S.S.S.S.A.F.D.D.D.D.D.D.D.D.D.D.S.B.B.C.C.Z.D.G.D.D.D.D.D.D.D.D.D.D.C.A.A.Z.Z.Z.Z.Z.Z.Z.Z.Z.Z.A.A.A.A.A.S.",
"S.S.S.A.A.S.S.S.S.S.S.S.S.A.A.A.F.D.D.D.D.D.D.D.D.D.S.B.B.C.C.Z.D.J.H.F.D.D.D.D.D.D.D.D.D.C.A.Z.Z.C.Z.Z.Z.Z.Z.Z.Z.Z.A.A.A.A.A.S.",
"S.S.S.S.S.S.S.S.S.S.A.A.A.A.A.A.F.D.D.D.D.D.D.D.D.S.B.B.C.C.Z.D.J.H.F.S.A.D.D.D.D.D.D.D.D.C.Z.Z.Z.C.C.Z.A.A.Z.Z.Z.Z.Z.A.A.A.A.S.",
"S.S.S.S.S.A.S.A.A.A.A.A.Z.A.A.A.F.D.D.D.D.D.D.D.S.B.V.C.C.Z.D.J.H.F.A.B.C.A.D.D.D.D.D.D.D.C.Z.Z.Z.Z.Z.Z.A.S.A.Z.Z.Z.Z.A.A.S.S.S.",
"A.S.S.S.S.S.S.A.A.Z.Z.Z.Z.Z.A.A.F.D.D.D.D.D.D.S.V.V.C.C.Z.D.J.H.F.A.N.V.C.V.A.D.D.D.D.D.D.C.Z.Z.Z.Z.A.A.A.A.A.A.Z.A.A.S.S.S.S.S.",
"S.S.S.S.S.A.A.A.A.Z.Z.Z.Z.A.A.A.F.D.D.D.D.D.S.N.V.C.C.C.A.F.H.F.A.N.V.C.C.V.C.A.D.D.D.D.D.C.Z.Z.A.A.A.S.A.A.S.S.A.A.A.A.S.S.S.A.",
"A.S.S.S.S.A.A.A.Z.Z.Z.Z.Z.Z.A.A.F.D.D.D.D.D.D.. B.C.V.C.C.A.S.A.N.V.C.. . C.V.V.A.D.D.D.D.C.Z.Z.A.S.S.S.A.S.S.S.S.S.A.A.A.S.S.A.",
"A.A.A.A.Z.Z.Z.Z.Z.Z.C.C.Z.Z.Z.Z.F.D.D.D.D.D.D.D.. N.V.C.C.. Z.V.V.C.C.A.V.V.C.C.. A.D.D.D.C.A.A.A.S.S.S.S.S.S.D.S.S.A.A.A.A.S.S.",
"A.A.A.Z.Z.Z.Z.Z.Z.Z.Z.C.C.C.C.C.F.D.D.S.V.S.D.D.D.C.N.C.. . V.. C.C.A.F.D.N.V.C.C.C.A.D.D.C.S.A.A.A.S.S.A.A.A.S.S.S.S.S.A.A.S.A.",
"Z.Z.Z.Z.Z.Z.Z.Z.Z.Z.Z.C.C.C.C.C.F.D.S.V.V.C.S.D.D.D.. B.C.C.C.C.C.A.F.J.H.S.N.V.C.C.. A.D.C.A.A.A.A.A.A.S.A.A.S.S.S.S.S.A.Z.A.A.",
"Z.Z.Z.Z.Z.Z.C.C.C.C.C.C.C.C.C.C.F.S.N.V.C.C.C.S.D.D.D.V.B.C.C.C.C.A.F.H.F.D.A.M.V.V.V.D.G.C.Z.Z.A.A.A.S.A.A.A.S.S.S.S.S.A.A.A.Z.",
"Z.Z.Z.Z.Z.C.C.C.C.C.C.Z.C.C.C.Z.F.D.. N.C.C.C.. S.D.A.M.B.V.C.. . C.A.S.D.D.D.A.M.B.D.J.H.C.Z.Z.Z.Z.A.A.S.A.A.S.S.S.S.S.A.A.Z.Z.",
"Z.Z.Z.Z.Z.Z.C.C.C.C.C.Z.Z.Z.Z.Z.F.D.D.Z.N.C.C.C.. A.N.B.V.V.. . C.C.C.A.S.D.D.D.A.A.J.H.F.C.Z.Z.Z.A.A.A.S.S.S.A.S.A.A.A.A.Z.Z.Z.",
"Z.Z.Z.Z.Z.Z.Z.Z.C.C.C.Z.Z.Z.Z.A.F.D.D.D.Z.N.C.C.C.V.V.C.C.Z.S.A.. C.C.V.A.S.D.D.D.F.H.F.D.C.Z.Z.Z.A.A.S.S.S.A.A.A.A.A.A.Z.Z.Z.Z.",
"Z.Z.Z.Z.A.A.A.Z.Z.Z.Z.Z.A.A.A.A.F.D.D.D.D.Z.N.C.. C.C.V.Z.F.J.D.A.C.V.C.C.A.S.D.D.D.D.D.D.C.Z.Z.A.A.S.A.A.A.A.A.Z.Z.Z.Z.Z.Z.Z.Z.",
"Z.Z.Z.A.A.A.A.Z.A.Z.Z.Z.A.A.S.A.F.D.D.D.D.D.Z.N.C.C.V.Z.D.J.H.F.A.A.C.C.. A.G.G.D.D.D.D.D.C.A.A.A.A.A.A.A.Z.Z.Z.Z.C.Z.Z.Z.Z.Z.A.",
"A.A.Z.A.A.A.A.S.S.A.A.A.A.A.S.A.F.D.D.D.D.D.D.Z.N.C.Z.D.J.H.F.A.M.C.C.. A.G.J.H.F.D.D.D.D.C.A.A.Z.Z.Z.Z.Z.Z.C.Z.C.C.C.Z.Z.Z.Z.Z.",
"A.A.A.A.A.A.S.S.S.S.S.S.A.A.A.A.F.D.D.D.D.D.D.D.Z.B.D.J.H.F.A.M.B.C.. A.F.J.H.F.D.D.D.D.D.C.A.A.A.Z.Z.Z.Z.Z.C.C.C.C.C.C.Z.Z.Z.Z.",
"A.A.S.S.A.S.S.S.S.S.S.S.A.A.Z.A.F.D.D.D.D.D.D.D.D.S.J.H.F.A.M.V.C.. A.F.J.H.F.D.D.D.D.D.D.C.A.A.A.Z.Z.Z.C.C.C.C.C.C.Z.Z.Z.Z.Z.Z.",
"A.S.D.D.S.S.S.S.S.A.S.S.A.Z.Z.Z.F.D.D.D.D.D.D.D.D.D.F.F.A.M.V.C.C.A.F.J.H.F.D.D.D.D.D.D.D.C.A.A.Z.Z.C.C.C.C.C.C.C.Z.Z.Z.Z.Z.Z.A.",
"A.S.S.D.D.S.S.S.A.A.A.S.A.A.Z.Z.F.D.D.D.D.D.D.D.D.D.D.S.M.V.C.. A.F.J.H.F.D.D.D.D.D.D.D.D.C.A.A.Z.C.C.C.C.Z.Z.Z.Z.Z.A.Z.A.A.A.S.",
"S.S.S.S.D.S.A.A.A.A.A.A.A.A.A.A.F.D.D.D.D.D.D.D.D.D.D.D.A.V.V.A.F.J.H.F.D.D.D.D.D.D.D.D.D.C.A.A.Z.Z.Z.C.Z.Z.Z.A.A.A.A.A.A.A.S.S.",
"S.S.S.S.S.S.S.A.A.A.A.A.S.S.S.A.F.D.D.D.D.D.D.D.D.D.D.D.D.A.. F.J.H.F.D.D.D.D.D.D.D.D.D.D.C.A.A.A.Z.Z.Z.Z.A.A.A.S.A.A.S.S.S.S.S.",
"S.S.S.S.S.S.S.S.A.A.A.A.S.S.S.S.F.D.D.D.D.D.D.D.D.D.D.D.D.D.D.J.H.F.D.D.D.D.D.D.D.D.D.D.D.C.A.A.S.A.A.A.A.A.A.A.S.S.S.S.S.S.S.S.",
"S.S.A.S.S.S.D.S.S.S.A.A.A.S.S.S.A.B.B.B.B.B.B.B.B.B.B.B.B.B.B.B.B.B.B.B.B.B.B.B.B.B.B.B.B.B.A.S.S.S.S.A.A.A.A.S.S.S.S.S.D.S.S.S.",
"A.A.S.S.S.S.D.D.S.A.A.A.A.A.A.S.A.A.Z.Z.Z.Z.A.Z.Z.Z.Z.S.D.S.S.S.S.A.A.Z.Z.Z.Z.Z.Z.Z.Z.A.S.S.S.S.S.S.S.S.S.A.A.S.A.S.S.S.S.S.S.S.",
"A.A.S.S.S.S.S.D.D.S.A.A.A.A.A.A.A.A.A.Z.Z.A.A.A.A.Z.Z.S.S.S.S.S.A.A.A.A.Z.Z.Z.Z.Z.Z.A.A.S.D.S.A.S.S.S.S.S.S.S.A.A.A.A.A.S.A.S.S.",
"V.V.V.N.N.V.V.N.N.N.M.M.M.M.M.M.M.M.M.M.M.M.N.N.N.N.V.V.V.V.V.V.N.N.V.V.V.V.V.N.N.N.M.M.M.M.M.M.M.M.M.M.M.M.N.N.N.N.V.V.N.N.V.V.",
"C.C.V.C.C.V.V.C.C.C.. C.C.C.C.C.V.C.V.C.V.C.C.C.C.. C.C.V.C.C.V.V.C.C.C.. C.C.V.C.C.V.V.C.C.C.. C.C.C.C.C.V.C.V.C.V.C.C.C.C.. C.",
"C.V.C.C.C.C.V.C.C.. C.. V.C.C.V.C.C.C.V.C.V.C.V.. C.C.V.C.C.C.C.V.C.C.. C.C.V.C.C.C.C.V.C.C.. C.. V.C.C.V.C.C.C.V.C.V.C.V.. C.. ",
"C.C.V.C.C.C.C.C.. C.. V.C.V.C.. C.C.C.C.. C.V.. C.. C.C.V.C.C.C.C.C.. C.. C.C.V.C.C.C.C.C.. C.. V.C.V.C.. C.C.C.C.. C.V.. C.. . ",
"C.C.C.V.C.C.C.. C.. C.. V.. V.. . C.. C.. . . . . . C.C.C.V.C.C.C.. C.. C.C.C.C.V.C.C.C.. C.. C.. V.. V.. . C.. C.. . . . . . C.",
". C.. V.C.V.C.V.C.C.C.V.C.C.V.. C.. C.C.V.C.C.C.C.V.C.C.. C.C.V.C.C.C.C.V.C.C.. V.C.V.C.V.C.C.C.V.C.C.V.. C.. C.C.V.C.C.C.C.V.C.",
"cXcXcXcXcXcXcXcXcXcXcXcXcXcXcXcXcXcXcXcXcXcXcXcXcXcXcXcXcXcXcXcXcXcXcXcXcXcXcXcXcXcXcXcXcXcXcXcXcXcXcXcXcXcXcXcXcXcXcXcXcXcXcXcX",
"L.L.L.L.L.L.L.L.L.L.L.L.L.L.L.L.L.L.L.L.L.L.L.L.L.L.L.L.L.L.L.L.L.L.L.L.L.L.L.L.L.L.L.L.L.L.L.L.L.L.L.L.L.L.L.L.L.L.L.L.L.L.L.L.",
"w w w w w w w w w w w w w w w w w w w w w w w w w w w w w w w w w w w w w w w w w w w w w w w w w w w w w w w w w w w w w w w w ",
"w vX$ $ bX7 7 7 7 7 7 7 7 7 7 7 7 7 7 7 7 7 7 7 7 7 bX$ $ vXL.w w vX$ $ bX7 7 7 7 7 7 7 7 7 7 7 7 7 7 7 7 7 7 7 7 7 bX$ $ vXL.w ",
"w nX6 7 7 bX$ 7 6 7 7 $ vX$ 8 7 7 6 6 6 8 8 vX8 bXbXbX$ nX0 L.w w nX8 7 7 7 8 vX0 vX8 $ bX8 bXnX$ vX7 bX7 8 8 8 8 nX0 nXq 0 L.w ",
"w nX5 8 8 $ 8 8 6 8 7 vX0 0 8 $ 7 7 7 bX$ 8 $ bX$ bXbXvXq 0 L.w w nXbX5 7 6 8 $ nXbX$ $ bXbX0 0 8 vXbX$ 8 7 6 7 $ $ 0 nXnX0 L.w ",
"w nX6 8 7 bX8 bX7 bXbX$ vX0 vX8 7 8 bXbX8 7 bX$ 0 8 $ nXq 0 L.w w nXbX7 8 7 7 bXnX0 $ 0 bXvX0 bX7 $ bXbX7 6 6 bX8 $ 0 0 0 0 L.w ",
"w nX7 8 7 6 8 7 $ 8 bXbX$ vXbX8 7 8 bX8 8 8 bXvX0 8 $ 0 nX0 L.w w nX7 8 8 7 6 bXvX$ vX$ bX$ vX$ 8 bXvXbX7 7 6 bX8 8 vXnX$ 0 L.w ",
"w nX7 7 6 6 6 8 7 $ 7 0 $ $ $ 8 6 $ bX8 8 8 7 $ $ 8 0 0 0 0 L.w w nX7 8 8 7 bX$ $ vX0 8 $ bXbXbX7 8 vX8 bX8 8 8 bX8 $ nX0 0 L.w ",
"w nX8 7 7 6 6 6 8 $ 7 0 $ $ vXbX7 vX8 bX8 $ 8 8 bX$ $ 0 vX0 L.w w nX7 8 8 6 bXbX$ 0 vX8 $ 8 8 $ bX8 vX7 0 $ bX8 bX7 $ 0 vX0 L.w ",
"w nX8 8 6 6 6 6 $ vXbXnX8 $ $ 8 7 $ $ 8 $ vX8 7 $ bXbX0 $ 0 L.w w nX5 7 7 6 8 $ vX0 $ $ bX8 8 vX8 $ $ 8 vX$ 8 bX8 6 8 bX$ 0 L.w ",
"w nX8 6 7 6 7 7 bX0 $ $ bX8 vX8 bX0 $ 8 $ 8 8 8 8 8 $ nXvX0 L.w w nX6 6 6 7 8 $ 0 q 0 nXbXbX8 8 7 vX$ bX$ $ 7 8 7 5 7 7 vX0 L.w ",
"w nXbX7 7 7 6 7 $ vX$ bXbXbXbX8 $ 0 vX8 bXbXbX8 8 8 $ 0 $ 0 L.w w nX6 6 7 6 $ bXbXvX0 q 8 bXvX8 8 $ 0 8 $ 8 8 $ 7 6 7 7 bX0 L.w ",
"w nX8 6 7 8 7 7 vX$ 8 $ $ bXbX$ vXnXvX8 $ $ bX7 8 8 $ 0 nX0 L.w w nX6 6 7 7 bXbX7 bX$ 0 vXvXnX8 8 7 0 bX$ bX8 8 6 7 8 7 bX0 L.w ",
"w nX8 7 6 8 6 bXbXbX$ $ $ bX8 $ 0 q bX8 bX8 7 8 8 8 $ vX$ 0 L.w w nX7 6 7 8 7 $ 7 8 $ 0 vX0 0 8 8 bXbX$ 0 bX7 8 7 7 8 8 $ 0 L.w ",
"w q q q mXw L.L.L.e e e e e e e e e e e e L.L.L.L.w mXq q q L.w w q q q mXw L.L.L.e e e e e e e e e e e e L.L.L.L.w mXq q q L.w ",
"w cXcXcXcXcXcXcXcXcXcXcXcXcXcXcXcXcXcXcXcXcXcXcXcXcXcXcXcXcXcXw w cXcXcXcXcXcXcXcXcXcXcXcXcXcXcXcXcXcXcXcXcXcXcXcXcXcXcXcXcXcXw ",
"w L.L.L.L.L.L.L.L.L.L.L.L.L.L.L.L.L.L.L.L.L.L.L.L.L.L.L.L.L.L.w w L.L.L.L.L.L.L.L.L.L.L.L.L.L.L.L.L.L.L.L.L.L.L.L.L.L.L.L.L.L.w "
};
