/* XPM */
static char *jagminigun[] = {
/* columns rows colors chars-per-pixel */
"128 128 29 1 ",
"  c gray12",
". c #3B2F17",
"X c #232323",
"o c #2F2F2F",
"O c gray20",
"+ c #373737",
"@ c gray23",
"# c #43331B",
"$ c #573F1F",
"% c #5F4323",
"& c #774F2B",
"* c #434343",
"= c #4B4B4B",
"- c gray34",
"; c #5B5B5B",
": c #676767",
"> c gray45",
", c #7B7B7B",
"< c gray50",
"1 c #935F37",
"2 c gray56",
"3 c #9B9B9B",
"4 c gray67",
"5 c #B7B7B7",
"6 c #C3C3C3",
"7 c LightGray",
"8 c #DFDFDF",
"9 c #EFEFEF",
"0 c None",
/* pixels */
"00000000000000000000000000000000000000000000000000000000000000000000000000000000000000000000000000000000000000000000000000000000",
"00000000000000000000000000000000000000000000000000000000000000000000000000000000000000000000000000000000000000000000000000000000",
"00000000000000000000000000000000000000000000000000000000000000000000000000000000000000000000000000000000000000000000000000000000",
"00000000000000000000000000000000000000000000000000000000000000000000000000000000000000000000000000000000000000000000000000000000",
"00000000000000000000000000000000000000000000000000000000000000000000000000000000000000000000000000000000000000000000000000000000",
"00000000000000000000000000000000000000000000000000000000000000000000000000000000000000000000000000000000000000000000000000000000",
"00000000000000000000000000000000000000000000000000000000000000000000000000000000000000000000000000000000000000000000000000000000",
"00000000000000000000000000000000000000000000000000000000000000000000000000000000000000000000000000000000000000000000000000000000",
"00000000000000000000000000000000000000000000000000000000000000000000000000000000000000000000000000000000000000000000000000000000",
"00000000000000000000000000000000000000000000000000000000000000000000000000000000000000000000000000000000000000000000000000000000",
"00000000000000000000000000000000000000000000000000000000000000000000000000000000000000000000000000000000000000000000000000000000",
"00000000000000000000000000000000000000000000000000000000000000000000000000000000000000000000000000000000000000000000000000000000",
"00000000000000000000000000000000000000000000000000000000000000000000000000000000000000000000000000000000000000000000000000000000",
"00000000000000000000000000000000000000000000000000000000000000000000000000000000000000000000000000000000000000000000000000000000",
"00000000000000000000000000000000000000000000000000000000000000000000000000000000000000000000000000000000000000000000000000000000",
"00000000000000000000000000000000000000000000000000000000000000000000000000000000000000000000000000000000000000000000000000000000",
"00000000000000000000000000000000000000000000000000000000000000000000000000000000000000000000000000000000000000000000000000000000",
"00000000000000000000000000000000000000000000000000000000000000000000000000000000000000000000000000000000000000000000000000000000",
"00000000000000000000000000000000000000000000000000000000000000000000000000000000000000000000000000000000000000000000000000000000",
"00000000000000000000000000000000000000000000000000000000000000000000000000000000000000000000000000000000000000000000000000000000",
"00000000000000000000000000000000000000000000000000000000000000000000000000000000000000000000000000000000000000000000000000000000",
"00000000000000000000000000000000000000000000000000000000000000000000000000000000000000000000000000000000000000000000000000000000",
"00000000000000000000000000000000000000000000000000000000000000000000000000000000000000000000000000000000000000000000000000000000",
"00000000000000000000000000000000000000000000000000000000000000000000000000000000000000000000000000000000000000000000000000000000",
"00000000000000000000000000000000000000000000000000000000000000000000000000000000000000000000000000000000000000000000000000000000",
"00000000000000000000000000000000000000000000000000000000000000000000000000000000000000000000000000000000000000000000000000000000",
"00000000000000000000000000000000000000000000000000000000000000000000000000000000000000000000000000000000000000000000000000000000",
"00000000000000000000000000000000000000000000000000000000000000000000000000000000000000000000000000000000000000000000000000000000",
"00000000000000000000000000000000000000000000000000000000000000000000000000000000000000000000000000000000000000000000000000000000",
"00000000000000000000000000000000000000000000000000000000000000000000000000000000000000000000000000000000000000000000000000000000",
"00000000000000000000000000000000000000000000000000000000000000000000000000000000000000000000000000000000000000000000000000000000",
"00000000000000000000000000000000000000000000000000000000000000000000000000000000000000000000000000000000000000000000000000000000",
"00000000000000000000000000000000000000000000000000000000000000000000000000000000000000000000000000000000000000000000000000000000",
"00000000000000000000000000000000000000000000000000000000000000000000000000000000000000000000000000000000000000000000000000000000",
"00000000000000000000000000000000000000000000000000000000000000000000000000000000000000000000000000000000000000000000000000000000",
"00000000000000000000000000000000000000000000000000000000000000000000000000000000000000000000000000000000000000000000000000000000",
"00000000000000000000000000000000000000000000000000000000000000000000000000000000000000000000000000000000000000000000000000000000",
"00000000000000000000000000000000000000000000000000000000000000000000000000000000000000000000000000000000000000000000000000000000",
"00000000000000000000000000000000000000000000000000000000000000000000000000000000000000000000000000000000000000000000000000000000",
"00000000000000000000000000000000000000000000000000000000000000000000000000000000000000000000000000000000000000000000000000000000",
"00000000000000000000000000000000000000000000000000000000000000000000000000000000000000000000000000000000000000000000000000000000",
"00000000000000000000000000000000000000000000000000000000000000000000000000000000000000000000000000000000000000000000000000000000",
"00000000000000000000000000000000000000000000000000000000000000000000000000000000000000000000000000000000000000000000000000000000",
"00000000000000000000000000000000000000000000000000000000000000000000000000000000000000000000000000000000000000000000000000000000",
"00000000000000000000000000000000000000000000000000000000000000000000000000000000000000000000000000000000000000000000000000000000",
"00000000000000000000000000000000000000000000000000000000000000000000000000000000000000000000000000000000000000000000000000000000",
"00000000000000000000000000000000000000000000000000000000000000000000000000000000000000000000000000000000000000000000000000000000",
"00000000000000000000000000000000000000000000000000000000000000000000000000000000000000000000000000000000000000000000000000000000",
"00000000000000000000000000000000000000000000000000000000000000000000000000000000000000000000000000000000000000000000000000000000",
"00000000000000000000000000000000000000000000000000000000000000000000000000000000000000000000000000000000000000000000000000000000",
"00000000000000000000000000000000000000000000000000000000000000000000000000000000000000000000000000000000000000000000000000000000",
"00000000000000000000000000000000000000000000000000000000000000000000000000000000000000000000000000000000000000000000000000000000",
"00000000000000000000000000000000000000000000000000000000000000000000000000000000000000000000000000000000000000000000000000000000",
"00000000000000000000000000000000000000000000000000000000000000000000000000000000000000000000000000000000000000000000000000000000",
"00000000000000000000000000000000000000000000000000000000000000000000000000000000000000000000000000000000000000000000000000000000",
"00000000000000000000000000000000000000000000000000000000000000000000000000000000000000000000000000000000000000000000000000000000",
"00000000000000000000000000000000000000000000000000000000000000000000000000000000000000000000000000000000000000000000000000000000",
"00000000000000000000000000000000000000000000000000000000000000000000000000000000000000000000000000000000000000000000000000000000",
"00000000000000000000000000000000000000000000000000000000000000000000000000000000000000000000000000000000000000000000000000000000",
"00000000000000000000000000000000000000000000000000000000000000000000000000000000000000000000000000000000000000000000000000000000",
"00000000000000000000000000000000000000000000000000000000000000000000000000000000000000000000000000000000000000000000000000000000",
"00000000000000000000000000000000000000000000000000000000000000000000000000000000000000000000000000000000000000000000000000000000",
"00000000000000000000000000000000000000000000000000000000000000000000000000000000000000000000000000000000000000000000000000000000",
"00000000000000000000000000000000000000000000000000000000000000000000000000000000000000000000000000000000000000000000000000000000",
"00000000000000000000000000000000000000000000000000000000000000000000000000000000000000000000000000000000000000000000000000000000",
"00000000000000000000000000000000000000000000000000000000000000>266662>0000000000000000000000000000000000000000000000000000000000",
"000000000000000000000000000000000000000000000000000000000000:2368998632:00000000000000000000000000000000000000000000000000000000",
"0000000000000000000000000000000000000000000000000000000000=:<7368998637<:=000000000000000000000000000000000000000000000000000000",
"000000000000000000000000000000000000000000000000000000000*:><7368998637<>:*00000000000000000000000000000000000000000000000000000",
"00000000000000000000000000000000000000000000000000000000*;:><7368998637<>:;*0000000000000000000000000000000000000000000000000000",
"0000000000000000000000000000000000000000000000000000000---------;;::::>>>>:=@000000000000000000000000000000000000000000000000000",
"0000000000000000000000000000000000000000000000000000---------;-:::>>>><<2222<000000000000000000000000000000000000000000000000000",
"000000000000000000000000000000000000000000>289984>>:::::::::><33344332<<22222<<>>288982>0000000000000000000000000000000000000000",
"0000000000000000000000000000000000000000:2442>>::::::::257999999999999999642<<>>:><289842:00000000000000000000000000000000000000",
"00000000000000000000000000000000000000@:<2>:::::::<25899877755555666677899999742>>>>>275383@000000000000000000000000000000000000",
"0000000000000000000000000000000000000*:>:::::::25797532>>::::::>>>>>>:::::3568998722>>>><83:*00000000000000000000000000000000000",
"000000000000000000000000000000000000*;::::::<48642>:::::::::::>><<<<>>::::::::><589973>>>>>:;*0000000000000000000000000000000000",
"00000000000000000000000000000000000@::>>::,4642>::::::::::::::><<222<>::::::::::::>57985>>>>>=@000000000000000000000000000000000",
"0000000000000000000000000000000000+=>>:<564<::::::::::::::::::><23332>::::::::::::::>57995<>>>-+00000000000000000000000000000000",
"000000000000000000000000000000000=;:;>45<::::::::::::::::::--->346664<>::::::::::::::::>4786<>>:+0000000000000000000000000000000",
"00000000000000000000000000000000=-;-23>:::::::::::::;;;;;=*o=>346777642:==:::::::::::::::<3463>>>=000000000000000000000000000000",
"0000000000000000000000000000000=-;,32::::::::;;;;;;;;;;;=..*:26788888732:@+::::::::::::::::>3562>>=00000000000000000000000000000",
"000000000000000000000000000000=-:22:::::;;;;;;;-;;-----*Xo*=>478788878742:*o::::::::::::::::::462<>=0000000000000000000000000000",
"00000000000000000000000000000==>2<:::;;;;;;;---------=*XXO=->766788876872:;*X::::::::::::::::::4742:=000000000000000000000000000",
"0000000000000000000000000000=->>:::;;;;;-------======*oXoO==2764788874682:-=@=::::::::::>>>:::::354<:=00000000000000000000000000",
"000000000000000000000000000@=><::;;;---------========@XXOO=-2644788874462:--=+:::::::::>>>>>:::::<662:=0000000000000000000000000",
"00000000000000000000000000@-><:;;----=--::::--=====**oXOOO=;2624788874462:-==@=:::::::>><<>>::::::<462-=000000000000000000000000",
"0000000000000000000000000@=><:;;=====--::::::-====@@+XXOOO=;2624788874262:--=@@:::::::><<<<>>::::::<262;=00000000000000000000000",
"000000000000000000000000@=>>:;;======-=:<<<>::;=*ooo+XX*OO=;2624788874262:--=@@:::::::><<<<>>:::::::>242:=0000000000000000000000",
"000000000000000000000000=>>:-====*@o*=;>2222>:=*oXoo+XX*OO=:2624788874262:--==@-:::;:<<2222<>::::::::><32:=000000000000000000000",
"00000000000000000000000@:>:-===@ooXo=:>378853>:=@ooooXX*OO=:2624788874262:-:==@=-*=:24468852>>:::::::::<<<;000000000000000000000",
"0000000000000000000000@->:-==*+oXXo=:><478863>:-@XoooXX*OO=:2424788874242:-:-=@=*=-:245788742<:==:::::::><:=00000000000000000000",
"0000000000000000000000@>:-==*+XXXo*:2<<578863>:-@Xoo@XX*OO=:2424778774242:-:-=@==-->246788742<<<*X=;;;;;:<<-=0000000000000000000",
"000000000000000000000@=>-=**+X Xo*;:3<2578863>:-@Xoo+XX*OO=:2424778774242:-::=@=---<346788753<<4<=o*;;;;;:<:=0000000000000000000",
"000000000000000000000@>:=*@@o X+*=:<3>2578863>:-@ oooXX*OO=:2424778774242:->:=@=-;:<346788753<<43-=X=;;;;;:<-0000000000000000000",
"00000000000000000000@;:=*@@@XXo*=;>23>2577763>:-@ oo@XX*OO=:2424778774242:->:=@=--:<346788753<<43:-=o=;;;;;;:=000000000000000000",
"00000000000000000000@:=*@@@oXX@==:>23:2577763<:-@ oo*XX*OO=:2424777774242:->>=@=--:<346788753<<43>:-=o=------=000000000000000000",
"0000000000000000000@==**@@+XXo@=->>33:2577763>:-@Xoo*XX=OO=:2424777774242:->>=@=--:<346788753<<43>::=@o-------000000000000000000",
"0000000000000000000@-**@@@+XXo@-:>>32:2577763>:-@Xoo=XX=OO-:2424777774242:-<>=@=--:>346788753<<33>::==o*------=00000000000000000",
"0000000000000000000@-*@@@++Xoo@->><32:2577763<:-@+o*;:<<34556677778887676542<>;=--:>346777652<<33>::==@o=-----=00000000000000000",
"000000000000000000o***@@@++o+o=->><32:2577763>:=-><345566888888888888888886665543<::346777642<<33>>:=;=o====---00000000000000000",
"000000000000000000o**@@@++oo@o=->><32:2577763<23445667777789999999999999987777777553246777642<>33>>:=:=@*====--*0000000000000000",
"000000000000000000o@*@@+++oo@o=:>><32:257766666667788653,::=*========-;,24578999777777666664<<>33>>:=:=@@=====-*0000000000000000",
"000000000000000000o@@@++++oo@o=:>><32:255666667873:-$+##.@@*@@@@@@@@@@@@=$+$$$-<479877777644<<>33>>:=:=@@======*0000000000000000",
"00000000000000000o@@@+++++oo@o=:>><3<>34566875>=+.+ooooooooooooooooooooooo@@@@@+o+=:37977773<>>33>>:=:=@@======*0000000000000000",
"00000000000000000o+@+++++ooo@o=>>><23456673-+++oooXXXXXXXXXXXXXXXooooooooooooooo@@+++@-<376553,23>>:=:=@@=======0000000000000000",
"00000000000000000o+++++++.o@@o->><345653=++.oXXXXXXXXXXXXXXXXXXXXXXXoooooooooooooooo+o+X+-<355532>>:=:=@@*======*000000000000000",
"00000000000000000o+++++++oo@@o-:<3432:o@ooXXXXXXXXXXXXXXoooo@@@@@@@@@@@@@@oooooooooooooXo+o*:3433<::=:=@@**=====*000000000000000",
"00000000000000000o+++++++Xo@@o;<33<;*ooXXXXXXXXXXX.o+*=-;;::::::><<<<<>>>>:::;=@+++ooooXooooo*;233<>=:=@@***====@000000000000000",
"00000000000000000o+++++++Xo@@*<><=oooXXXXXXXXXX+=-;:::::::::;::::>>>>>>>>>>>>>>::=*@+oooXXooo++*-<<<<-=@@****===@000000000000000",
"00000000000000000o+++++++oo@*<>:oooXXXXXXXXX+=::::::::::::::::::::>>>>>>>>>>>>>>>>>:-*ooXoooooooo=;2<<:@@*****==@000000000000000",
"00000000000000000o+++++++oo=::=+ooXXXXXXXo=-::::::::::::::::::::::>>>>>>>>>>>:>>>>>>>>:-=+oooooo++@;><<:@*****==@000000000000000",
"00000000000000000o+++++oo**:=oXoXXXXXXo=--;:::::1;;;---==**********===%%-&1:::::>>>>>>>>>::*+oXooo+@@-::-******=@000000000000000",
"00000000000000000o++++oO*==+oXXXXXXX*-::::::::::--=*****@@@@@@@@@@@@@@@@@@@@***-=;:>>::>>>>>:=@oooooo*=::;*****=@000000000000000",
"00000000000000000o+++OO=-=ooXXXXXX*=:::::::::;=**@@@@@@@@@@@@@@=====@@@@@@@@*****+**=:::>:>:>>>=*oooo++*-:-*****@000000000000000",
"00000000000000000o++OO*=*ooXXXXo*-:::::::-*****@@@@@@@@@@@@@@@=------=@@@@@@@@@@@@+oo@@--::::::::-@oo+o+@-:;***@@000000000000000",
"00000000000000000o++O*=*ooXXoX*-::::::-==o@@@@@@@@@@@@@@@@@@@=-:>>>>:-=@@@@@@@@@@@@@++oo+=-::::>>>>=ooo+@@=;;**@@000000000000000",
"00000000000000000o+O*=*oXoXXo=::::::-*@*@@@@@@@@@@@@@@@@@@@@=-:>>>>>>:-=@@@@@@@@@@@@@@@+oooo@-:>>>>>:=+ooo@=;;=@@000000000000000",
"00000000000000000o+*=oXXoXo=-:::::===@@@@@@@@@@@@@@@@@@@@@@=--:>2332>:-==@@@@@@@@@@@@@@@@@oooo+=:>>>>>-*oo++==;=@000000000000000",
"00000000000000000o*=+XXoX@-:::::=*@@@@@@@@@@@@@@@@@@@@@@@@@=->257777752-=@@@@@@@@@@@@@@@@@@@oXooo=:>>>>>-@oo@=;;@000000000000000",
"0000000000000000o+=@XXXo=-::::-=*@@@@@@@@@@@@@@@@@@@@@@@@@@=:25777777752>=@@@@@@@@@@@@@@@@@@@@oo..+-:>>>>:-++@=-=@00000000000000",
"000000000000000oo++XXXo=-::::=*@@@@@@@@@@@@@@@@@@@@@@@@@@*=:<45777777754<:==@@@@@@@@@@@@@@@@@@@@oXoo@=:>>>:-@@@===@0000000000000",
"000000000000000o+@oXXo--:::-=@@@@@@@@@@@@@@@@@@@@@@@@@@+@=::3457777777543<>-=@@@@@@@@@@@@@@@@@@@@oXoXX=:>>>>-@@@==@0000000000000",
"00000000000000oXooXXo=;:::==@@@@@@@@@@@@@@@@@@@@@@@@@@@o*:<:4457777777544<<>-=$@@@@@@@@@@@@@@@@@@@@oXoX=->>>:-@@@=@@000000000000",
"00000000000000o@+oXo;;=:-=@@@@@@@@@@===@@@@@@@@@@@@@@+o@=<>:4357777777534>><>=@$@@@@@@@@@@@@@@@@@@@@oXXoo=>>>>:++@@@000000000000",
"0000000000000o**oX+;;;-==@@@@@@@@@======@@@@@@@@@@@@@o@=:<-:4357777777534>:<>=@@o@@@@@@@@@@@@====@@@@@oXXo*:>>>;@++=@00000000000",
"0000000000000o*oX*;;;===@@@@@@@@@==----==@@@@@@@@@@@o@@=><-:4357777777534>:<>=@=@o@@@@@@@@@=======@@@@@oXXoo->><-@o+@@0000000000",
"000000000000oo@XX;;;-*=@@@@@@@@@@=--::--=@@@@@@@@@@@o@@=><-:4357777777534>:<>=@=@o@@@@@@@@==-----==@@@@@oXXXo=>><:@@@@0000000000"
};
